<?xml version="1.0" encoding="UTF-8" standalone="no"?>
<svg
   xmlns:dc="http://purl.org/dc/elements/1.1/"
   xmlns:cc="http://creativecommons.org/ns#"
   xmlns:rdf="http://www.w3.org/1999/02/22-rdf-syntax-ns#"
   xmlns:svg="http://www.w3.org/2000/svg"
   xmlns="http://www.w3.org/2000/svg"
   xmlns:xlink="http://www.w3.org/1999/xlink"
   xmlns:sodipodi="http://sodipodi.sourceforge.net/DTD/sodipodi-0.dtd"
   xmlns:inkscape="http://www.inkscape.org/namespaces/inkscape"
   version="1.1"
   id="svg2"
   width="1066.6667"
   height="1066.6667"
   viewBox="0 0 1066.6667 1066.6667"
   sodipodi:docname="energyDrinkLicense.svg"
   inkscape:version="1.0.2 (e86c870879, 2021-01-15)">
  <metadata
     id="metadata8">
    <rdf:RDF>
      <cc:Work
         rdf:about="">
        <dc:format>image/svg+xml</dc:format>
        <dc:type
           rdf:resource="http://purl.org/dc/dcmitype/StillImage" />
        <dc:title></dc:title>
      </cc:Work>
    </rdf:RDF>
  </metadata>
  <defs
     id="defs6" />
  <sodipodi:namedview
     pagecolor="#ffffff"
     bordercolor="#666666"
     borderopacity="1"
     objecttolerance="10"
     gridtolerance="10"
     guidetolerance="10"
     inkscape:pageopacity="0"
     inkscape:pageshadow="2"
     inkscape:window-width="1280"
     inkscape:window-height="756"
     id="namedview4"
     showgrid="false"
     inkscape:zoom="0.50233966"
     inkscape:cx="667.57396"
     inkscape:cy="470.66535"
     inkscape:window-x="0"
     inkscape:window-y="20"
     inkscape:window-maximized="1"
     inkscape:current-layer="g837" />
  <g
     inkscape:groupmode="layer"
     inkscape:label="Image"
     id="g10">
    <image
       sodipodi:absref="/home/alice/Documents/labo/EnergyDrink-license/energyDrinkLicense.png"
       xlink:href="energyDrinkLicense.png"
       id="image12"
       preserveAspectRatio="none"
       height="1066.6667"
       width="1066.6667" />
    <g
       id="g837">
      <path
         style="fill:#ffffff;stroke-width:1.33333;fill-opacity:0"
         d="M 0,533.33335 V 0 H 533.33335 1066.6667 V 533.33335 1066.6667 H 533.33335 0 Z m 560.66668,525.30355 c 33.00927,-1.5378 52.85227,-3.383 64.72054,-6.0184 4.73704,-1.0519 15.8128,-3.359 24.6128,-5.1269 8.8,-1.7679 19.38123,-4.1993 23.51384,-5.4032 12.62556,-3.6778 24.84988,-13.2353 27.39902,-21.4217 0.95069,-3.0531 3.27836,-5.0786 9.83301,-8.5564 10.87405,-5.7695 26.94205,-21.49706 29.43961,-28.81574 1.50222,-4.40196 1.86506,-75.97341 2.15232,-424.5453 l 0.34552,-419.25079 -3.99418,-8.53537 c -2.1968,-4.69446 -9.06974,-17.04841 -15.27319,-27.45323 C 708.936,79.223172 704.00408,68.572818 703.07674,59.587791 c -0.63464,-6.149028 -0.29006,-7.858069 2.28715,-11.343925 2.88864,-3.907101 2.92795,-4.266585 0.81837,-7.486187 -2.70224,-4.124133 -3.52216,-4.309301 -26.84891,-6.063378 -82.75848,-6.223101 -209.24152,-6.223101 -292,0 -23.32675,1.754077 -24.14667,1.939245 -26.84891,6.063378 -2.10958,3.219602 -2.07027,3.579086 0.81837,7.486187 6.33505,8.568609 2.14941,21.382815 -18.05208,55.266004 -6.20345,10.40482 -13.07639,22.75877 -15.27319,27.45323 l -3.99418,8.53537 0.34552,419.25079 c 0.28726,348.57189 0.6501,420.14334 2.15232,424.5453 2.49756,7.31868 18.56556,23.04624 29.43961,28.81574 6.55465,3.4778 8.88232,5.5033 9.83301,8.5564 2.54914,8.1864 14.77346,17.7439 27.39902,21.4217 4.13261,1.2039 14.71384,3.6353 23.51384,5.4032 8.8,1.7679 19.9,4.0803 24.66667,5.1386 14.32706,3.1809 34.21468,4.8058 87.33333,7.1357 2.2,0.097 16.6,-0.4115 32,-1.129 z"
         id="path845" />
      <path
         style="fill:#40dc29;stroke-width:1.33333"
         d="m 337.05093,669.66669 c 0.28281,-17.41667 -0.0471,-35.11667 -0.73317,-39.33334 l -1.24739,-7.66666 h 5.79816 5.79815 v 35.33333 35.33333 h 16.66666 16.66667 v 4.00001 4 h -21.73165 -21.73164 z m 57.53627,-1.33334 c -0.0437,-18.15 -0.5486,-35.85 -1.12196,-39.33333 l -1.04247,-6.33333 h 5.78863 5.78861 v 39.33333 39.33334 h -4.66666 -4.66667 l -0.0795,-33.00001 z m 47.41281,31.23117 c -6.65554,-3.04554 -12.6011,-8.87241 -16.39888,-16.07151 -3.30812,-6.2709 -3.60112,-8.07392 -3.60112,-22.15966 0,-14.69054 0.17362,-15.64076 4.14144,-22.66666 5.31734,-9.41551 13.62462,-14.8734 23.94039,-15.72887 7.71555,-0.63983 16.85195,1.30029 21.19085,4.49989 2.40102,1.77056 2.4363,2.09143 0.44847,4.07926 -1.78809,1.78809 -2.89624,1.90001 -6.47164,0.65362 -6.06993,-2.11598 -16.67581,-1.86905 -21.2468,0.4947 -18.94927,9.79905 -17.09227,51.15144 2.66456,59.33497 3.85395,1.59636 14.631,1.27667 20.66607,-0.61305 1.84468,-0.5776 3.17805,-0.005 4.3257,1.85861 1.48266,2.40722 1.19912,2.93234 -2.66666,4.9389 -5.73678,2.97773 -21.71538,3.79452 -26.99238,1.3798 z m 47.05093,-29.89783 c 0.28281,-17.41667 -0.0471,-35.11667 -0.73318,-39.33334 l -1.24738,-7.66666 h 21.79816 21.79814 v 4 4 h -16.82217 c -16.79455,0 -16.82085,0.005 -16.01821,3 0.44218,1.65 0.81217,7.35 0.82218,12.66666 l 0.0182,9.66667 h 14 14 v 3.33333 3.33334 h -14 -14 v 15.33333 15.33333 h 16.66667 16.66667 v 4.00001 4 h -21.73166 -21.73164 z m 62.9344,-2.66667 c -0.008,-18.88333 -0.38658,-36.58333 -0.84112,-39.33333 l -0.82644,-5 h 6.00464 6.00465 l 16.09875,27 c 8.85431,14.85 17.43035,30.6 19.05785,35 3.57607,9.66797 4.56382,7.94562 2.62171,-4.57151 -0.79128,-5.09995 -1.43869,-20.10771 -1.43869,-33.35056 v -24.07793 h 4.66666 4.66667 v 39.33333 39.33334 h -4.35112 c -4.24893,0 -4.74581,-0.6655 -21.15494,-28.33334 -9.24209,-15.58333 -17.96805,-31.16416 -19.39102,-34.62405 l -2.58722,-6.29074 0.57844,34.62407 0.57844,34.62406 h -4.83629 -4.83629 l -0.0147,-34.33334 z m 79.01468,32.11696 c -5.99241,-2.12114 -6.72809,-3.60481 -3.74131,-7.54507 1.74264,-2.29893 2.07066,-2.3091 6.16608,-0.19128 3.15184,1.6299 6.63011,2.09009 12.81884,1.69602 9.95704,-0.63402 14.67878,-4.1778 15.94251,-11.96526 1.07152,-6.603 -3.72728,-11.6056 -18.72128,-19.5163 -13.93824,-7.35371 -17.51688,-11.3835 -17.34093,-19.52702 0.25469,-11.78728 11.56434,-20.22365 25.61701,-19.10884 4.17583,0.33127 9.86161,1.57838 12.63507,2.77134 4.62718,1.99032 4.90182,2.39758 3.33333,4.94314 -1.20316,1.95264 -2.49896,2.51803 -4.37599,1.9093 -1.46666,-0.47564 -6.56666,-1.15876 -11.33333,-1.51804 -7.46623,-0.56274 -9.17455,-0.25279 -12.33333,2.23769 -4.35702,3.4352 -4.97827,10.18672 -1.33334,14.49012 1.28334,1.51516 7.86839,5.51803 14.63347,8.89525 7.35855,3.6735 13.38919,7.66984 15.01089,9.94732 7.95728,11.17499 3.3355,26.1695 -9.92253,32.19179 -6.57693,2.98748 -19.05643,3.12118 -27.05516,0.28984 z m 56.71759,-29.45029 c 0.28281,-17.41667 -0.0471,-35.11667 -0.73318,-39.33334 l -1.24738,-7.66666 h 21.79816 21.79815 v 4 4 h -16.82218 c -16.79454,0 -16.82085,0.005 -16.01821,3 0.44219,1.65 0.81217,7.35 0.82219,12.66666 l 0.0182,9.66667 h 14 14 v 3.33333 3.33334 h -14 -14 v 15.33333 15.33333 h 16.66666 16.66667 v 4.00001 4 H 708.93504 687.20339 Z M 389.33335,539.05387 c 0,-18.34157 -0.39468,-36.22784 -0.87707,-39.74724 l -0.87707,-6.39889 13.87707,0.83846 c 16.63729,1.00524 21.7632,2.34571 28.99072,7.5813 7.86855,5.69993 11.22019,13.03458 11.93932,26.12766 0.77603,14.12874 -1.86792,23.39908 -8.97687,31.47528 -7.27966,8.27012 -15.54813,11.59784 -31.40576,12.63948 l -12.67034,0.8323 z m 31.20578,20.42472 c 8.29226,-4.85959 11.99472,-12.87675 12.07042,-26.13676 0.0751,-13.15517 -1.28554,-19.02268 -5.60034,-24.15053 -4.75193,-5.64735 -10.55502,-7.85772 -20.63304,-7.85904 l -8.37616,-0.001 0.38115,31.51528 0.38115,31.51527 7.9527,-0.72112 c 5.1067,-0.46305 10.05391,-1.95251 13.82412,-4.162 z m 36.73615,-19.81191 c -0.032,-17.78333 -0.57987,-35.03333 -1.21763,-38.33333 -0.63776,-3.3 -0.859,-6.3 -0.49164,-6.66667 0.36736,-0.36666 7.09608,-0.6279 14.95271,-0.58052 12.10867,0.0731 15.25903,0.55776 20.67999,3.18202 7.97992,3.863 11.45635,9.26721 11.46299,17.81949 0.008,10.68283 -5.6658,18.1482 -16.53843,21.75951 l -6.77947,2.25177 4.24294,1.45053 c 3.08406,1.05435 7.17958,5.35483 14.99477,15.74519 5.91351,7.86205 10.75184,14.61205 10.75184,15 0,0.38793 -2.08152,0.70535 -4.6256,0.70535 -4.35037,0 -5.34451,-0.95203 -16.70773,-16 -11.36323,-15.04798 -12.35737,-16 -16.70774,-16 h -4.6256 v 16 16 h -4.66667 -4.66666 l -0.058,-32.33334 z m 29.13831,-10.3675 c 5.32445,-3.24624 8.78203,-10.72832 7.67777,-16.61448 -0.43517,-2.31968 -2.61249,-5.96247 -4.83849,-8.09512 -3.60156,-3.45051 -5.16327,-3.93388 -14.1812,-4.38927 l -10.13395,-0.51173 0.86448,4.32238 c 0.47547,2.37731 0.86448,9.64739 0.86448,16.15572 v 11.83334 l 7.66667,-0.005 c 5.33596,-0.004 9.00841,-0.82302 12.08024,-2.69585 z m 38.84028,9.70084 c -0.0437,-18.15 -0.5486,-35.85 -1.12196,-39.33334 l -1.04247,-6.33333 h 5.78863 5.78861 v 39.33333 39.33334 h -4.66666 -4.66667 l -0.0795,-33 z m 32.0648,-1.33334 c -0.008,-18.88333 -0.38657,-36.58333 -0.84112,-39.33333 l -0.82644,-5 h 6.00464 6.00465 l 16.09875,27 c 8.85431,14.85 17.43035,30.6 19.05786,35 3.57606,9.66797 4.56381,7.94563 2.6217,-4.57151 -0.79128,-5.09994 -1.43869,-20.1077 -1.43869,-33.35056 v -24.07793 h 4.66667 4.66666 v 39.33333 39.33334 h -4.35112 c -4.24893,0 -4.74581,-0.6655 -21.15493,-28.33334 -9.2421,-15.58333 -17.96806,-31.16416 -19.39103,-34.62405 l -2.58721,-6.29073 0.57844,34.62406 0.57844,34.62406 h -4.8363 -4.83629 l -0.0147,-34.33334 z m 78.60187,1.33334 c -0.0437,-18.15 -0.5486,-35.85 -1.12196,-39.33334 l -1.04247,-6.33333 h 5.78863 5.78861 v 16.66667 c 0,9.16666 0.45,16.6293 1,16.58365 0.55,-0.0456 7.21499,-7.54565 14.81108,-16.66667 13.40794,-16.09957 13.96503,-16.58365 19.08478,-16.58365 h 5.27369 l -13.72333,16.19556 c -9.13227,10.77744 -15.29394,16.86151 -18.41811,18.18615 l -4.69477,1.99058 4.91281,2.14719 c 2.70204,1.18095 6.06075,3.64719 7.46379,5.48052 1.40305,1.83333 7.75142,10.38333 14.1075,19 l 11.55652,15.66667 -5.68697,-0.0573 -5.68699,-0.0573 -14.66666,-19.60927 -14.66667,-19.60928 -0.36897,19.66667 -0.36899,19.66667 h -4.63101 -4.63103 l -0.0795,-33 z M 342.38426,411.00001 c 0.28282,-17.41666 -0.0471,-35.11666 -0.73317,-39.33333 l -1.24739,-7.66667 h 21.79816 21.79815 v 4 4 h -16.82217 c -16.79455,0 -16.82086,0.005 -16.01822,3 0.44219,1.65 0.81218,7.35 0.82219,12.66667 l 0.0182,9.66667 h 14 14 v 3.33333 3.33333 h -14 -14 v 15.33334 15.33333 h 16.66667 16.66667 v 4 4 h -21.73166 -21.73164 z m 62.93441,-2.66666 c -0.008,-18.88334 -0.38658,-36.58334 -0.84112,-39.33334 l -0.82644,-5 h 6.00464 6.00465 l 16.09875,27 c 8.8543,14.85 17.43034,30.6 19.05785,35 3.57607,9.66798 4.56381,7.94563 2.62171,-4.5715 -0.79128,-5.09995 -1.4387,-20.10771 -1.4387,-33.35056 v -24.07794 h 4.66667 4.66667 v 39.33334 39.33333 h -4.35112 c -4.24894,0 -4.74582,-0.66549 -21.15494,-28.33333 -9.24209,-15.58334 -17.96805,-31.16416 -19.39102,-34.62406 l -2.58722,-6.29073 0.57844,34.62407 0.57844,34.62405 h -4.83629 -4.83629 l -0.0147,-34.33333 z m 78.39893,2.66666 c 0.28282,-17.41666 -0.0471,-35.11666 -0.73317,-39.33333 l -1.24739,-7.66667 h 21.79816 21.79815 v 4 4 h -16.82217 c -16.79455,0 -16.82086,0.005 -16.01822,3 0.44219,1.65 0.81218,7.35 0.82219,12.66667 l 0.0182,9.66667 h 14 14 v 3.33333 3.33333 h -14 -14 v 15.33334 15.33333 h 16.66667 16.66666 v 4 4 h -21.73165 -21.73164 z m 62.89102,-0.66666 c -0.032,-17.78334 -0.57987,-35.03334 -1.21763,-38.33334 -0.63776,-3.3 -0.859,-6.3 -0.49164,-6.66667 0.36736,-0.36666 7.09608,-0.6279 14.95271,-0.58052 12.10866,0.0731 15.25902,0.55776 20.67998,3.18202 7.97993,3.863 11.45635,9.26721 11.46299,17.81949 0.008,10.68283 -5.6658,18.1482 -16.53843,21.75951 l -6.77946,2.25177 4.24293,1.45054 c 3.08407,1.05434 7.17959,5.35482 14.99478,15.74518 5.9135,7.86206 10.75184,14.61206 10.75184,15 0,0.38794 -2.08152,0.70535 -4.6256,0.70535 -4.35038,0 -5.34451,-0.95203 -16.70774,-16 -11.36323,-15.04797 -12.35736,-16 -16.70773,-16 h -4.6256 v 16 16 h -4.66667 -4.66667 l -0.058,-32.33333 z m 29.1383,-10.36751 c 5.32446,-3.24624 8.78203,-10.72832 7.67778,-16.61448 -0.43518,-2.31968 -2.6125,-5.96247 -4.8385,-8.09512 -3.60156,-3.45051 -5.16326,-3.93388 -14.1812,-4.38927 l -10.13394,-0.51173 0.86448,4.32239 c 0.47546,2.3773 0.86448,9.64738 0.86448,16.15572 v 11.83333 l 7.66666,-0.005 c 5.33596,-0.004 9.00842,-0.82303 12.08024,-2.69586 z m 54.2531,40.93267 c -25.49791,-11.67191 -28.96947,-57.4816 -5.46593,-72.12706 9.86889,-6.14947 26.39976,-6.14967 34.73861,-4.1e-4 2.40101,1.77056 2.43629,2.09142 0.44847,4.07925 -1.7881,1.7881 -2.89624,1.90002 -6.47164,0.65363 -6.06994,-2.11599 -16.67582,-1.86906 -21.2468,0.49469 -18.95858,9.80386 -17.09126,51.15186 2.67992,59.34135 4.95254,2.05141 14.76313,1.10004 19.29813,-1.8714 3.11743,-2.04261 3.35257,-2.94267 3.35257,-12.83261 v -10.63594 h -8 -8 v -4 -4 h 12.66667 12.66667 v 15.76759 c 0,17.51805 -0.4085,18.42316 -10.65604,23.61089 -6.0865,3.08124 -20.73056,3.93702 -26.01063,1.52002 z m 68.66667,-14.24664 v -16.01482 l -11.33334,-22.63704 c -6.23333,-12.45037 -11.33333,-22.94371 -11.33333,-23.31852 0,-0.37481 2.09537,-0.68148 4.65639,-0.68148 4.61156,0 4.73172,0.15085 12.47985,15.66667 4.3029,8.61667 8.62996,18.06667 9.6157,21 l 1.79225,5.33333 1.19997,-6 c 0.65999,-3.3 4.58754,-12.74272 8.72791,-20.98381 7.26777,-14.46598 7.67795,-14.98436 11.86868,-15 l 4.34075,-0.0162 -11.34075,22.65186 -11.34075,22.65185 v 16.68148 16.68148 h -4.66666 -4.66667 z"
         id="path843" />
      <path
         style="fill:#34d72a;stroke-width:1.33333"
         d="m 450.33335,701.72572 c 1.65,-0.31782 4.35,-0.31782 6,0 1.65,0.3178 0.3,0.57782 -3,0.57782 -3.3,0 -4.65,-0.26002 -3,-0.57782 z m 190.66667,0 c 1.65,-0.31782 4.35,-0.31782 6,0 1.65,0.3178 0.3,0.57782 -3,0.57782 -3.3,0 -4.65,-0.26002 -3,-0.57782 z M 334.82926,664.44241 c -0.0895,-20.6567 -0.55089,-38.6567 -1.02549,-40 -0.72132,-2.04164 -0.55723,-2.158 1,-0.7092 1.46513,1.36312 1.9482,8.19586 2.26237,32 0.21971,16.64674 -0.15712,33.86681 -0.83741,38.26681 -0.93645,6.05691 -1.27636,-1.12228 -1.39947,-29.55761 z m 57.17075,-0.33334 c 0,-20.47336 -0.3883,-38.32336 -0.8629,-39.66666 -0.72118,-2.04124 -0.55694,-2.1579 1,-0.71028 2.4164,2.24676 3.69749,77.60123 1.31929,77.60123 -1.01819,0 -1.45639,-11.2003 -1.45639,-37.22429 z m 94.82926,0.33334 c -0.0895,-20.6567 -0.55089,-38.6567 -1.02549,-40 -0.72132,-2.04164 -0.55723,-2.158 1,-0.7092 1.46513,1.36312 1.9482,8.19586 2.26237,32 0.21971,16.64674 -0.15712,33.86681 -0.83741,38.26681 -0.93646,6.05691 -1.27636,-1.12228 -1.39947,-29.55761 z m 64.14763,4.07704 c -0.17062,-18.41431 -0.60103,-36.41431 -0.95648,-40 -0.64611,-6.51796 -0.64596,-6.51826 0.68841,-1.31452 0.7758,3.02549 1.17631,19.77445 0.95648,40 l -0.37819,34.79509 z m 31.15145,6.83037 c -8.57979,-14.31835 -16.71452,-28.5236 -18.07719,-31.56721 -2.23022,-4.98138 -2.53218,-5.21348 -3.02456,-2.32488 -0.30084,1.76493 -0.55932,0.32297 -0.5744,-3.20435 l -0.0275,-6.41329 3.61057,8.41329 c 1.98581,4.62732 10.61427,20.03928 19.17433,34.24881 8.56007,14.20952 15.32853,26.07074 15.04102,26.35826 -0.28752,0.28751 -7.54257,-11.19227 -16.12236,-25.51063 z m 25.87167,-13.26532 v -39.24885 l -4.33333,-0.53776 c -4.26643,-0.52947 -4.25614,-0.54107 0.66666,-0.75115 l 5,-0.21339 v 40 c 0,22 -0.3,40.00001 -0.66666,40.00001 -0.36667,0 -0.66667,-17.66199 -0.66667,-39.24886 z m 20.33333,37.26103 c -5.04105,-2.19104 -5.43464,-4.48379 -1.52173,-8.86447 l 2.81161,-3.14771 -2.14494,3.61976 c -3.0888,5.21261 -2.77758,5.93409 3.52173,8.16387 3.11667,1.10322 4.76667,2.02974 3.66667,2.05892 -1.1,0.0292 -3.95,-0.79448 -6.33334,-1.83037 z m 57.16259,-34.90312 c -0.0895,-20.6567 -0.55089,-38.6567 -1.02549,-40 -0.72132,-2.04164 -0.55723,-2.158 1,-0.7092 1.46513,1.36312 1.9482,8.19586 2.26237,32 0.21971,16.64674 -0.15712,33.86681 -0.83741,38.26681 -0.93646,6.05691 -1.27636,-1.12228 -1.39947,-29.55761 z m -251.97591,30.74141 c -15.54386,-13.30496 -18.84611,-43.67487 -6.61647,-60.84981 3.08771,-4.33627 13.73972,-11.66732 16.95263,-11.66732 1.10041,0 -1.18615,1.58809 -5.08123,3.52909 -12.67656,6.317 -18.08528,18.41888 -17.19389,38.47091 0.4518,10.1634 1.13688,13.1151 4.4762,19.28592 2.232,4.12458 6.44646,9.18672 9.71306,11.66667 3.17368,2.40941 5.23168,4.38074 4.57334,4.38074 -0.65835,0 -3.72898,-2.16729 -6.82364,-4.8162 z m 98.47999,0.41159 c 0,-1.88505 -2.31608,-2.23916 -17,-2.59911 l -17,-0.41673 17.04184,-0.28978 c 14.31009,-0.24332 17.16841,0.04 17.83138,1.76774 0.43426,1.13163 0.41542,2.43163 -0.0419,2.88888 -0.45724,0.45727 -0.83136,-0.15068 -0.83136,-1.351 z m 133.33333,-1.59539 c 1.72234,-1.83333 3.43151,-3.33333 3.79818,-3.33333 0.36666,0 -0.74251,1.5 -2.46484,3.33333 -1.72234,1.83334 -3.43151,3.33334 -3.79818,3.33334 -0.36666,0 0.74251,-1.5 2.46484,-3.33334 z m 65.33334,1.59539 c 0,-1.88505 -2.31608,-2.23916 -17,-2.59911 l -17,-0.41673 17.04184,-0.28978 c 14.31009,-0.24332 17.16841,0.04 17.83139,1.76774 0.43425,1.13163 0.41541,2.43163 -0.0419,2.88888 -0.45724,0.45727 -0.83136,-0.15068 -0.83136,-1.351 z m -367.33335,-2.26206 -17.33333,-0.78889 16.92131,-0.27223 c 10.14753,-0.16324 17.25119,0.26154 17.74536,1.06112 0.45323,0.73334 0.63864,1.21085 0.41203,1.06113 -0.22662,-0.14972 -8.21203,-0.62723 -17.74537,-1.06113 z m 85.66667,-0.88304 c 0.91667,-0.36988 2.41667,-0.36988 3.33334,0 0.91666,0.36988 0.16666,0.67252 -1.66667,0.67252 -1.83333,0 -2.58333,-0.30264 -1.66667,-0.67252 z m 9.66667,-0.4157 c 2.56667,-0.54564 6.46667,-1.38206 8.66667,-1.8587 3.64293,-0.78928 3.58342,-0.69608 -0.66667,1.04396 -2.56667,1.05084 -6.46667,1.88726 -8.66667,1.85871 -3.88877,-0.0504 -3.87024,-0.0795 0.66667,-1.04397 z m 178.41667,0.38793 c 0.9625,-0.38516 2.11251,-0.3378 2.55556,0.1052 0.44306,0.44305 -0.34445,0.75819 -1.75,0.70029 -1.55326,-0.064 -1.8692,-0.37992 -0.80556,-0.80554 z m 12,0 c 0.9625,-0.38516 2.11251,-0.3378 2.55556,0.1052 0.44306,0.44305 -0.34445,0.75819 -1.75,0.70029 -1.55326,-0.064 -1.8692,-0.37992 -0.80556,-0.80554 z m -49.2413,-2.08919 c -0.0869,-0.91666 -0.0468,-2.47688 0.0892,-3.46713 0.13593,-0.99027 -0.26747,-1.48241 -0.89646,-1.09369 -0.62897,0.38873 -1.18469,-13.80106 -1.23493,-31.53286 l -0.0913,-32.23965 1.00728,29.33333 c 0.55401,16.13334 1.4486,31.88334 1.98798,35 0.53939,3.11667 0.60171,5.66667 0.13848,5.66667 -0.46322,0 -0.91332,-0.75 -1.0002,-1.66667 z m 57.05332,-1.52516 c 2.97346,-2.55766 3.71072,-4.31506 3.71072,-8.84533 0,-4.92064 -0.68746,-6.25741 -5.30304,-10.31204 -2.91667,-2.56217 -4.01775,-3.99531 -2.44684,-3.18471 1.57089,0.81059 4.48045,3.40414 6.46566,5.76343 2.9083,3.45631 3.46452,5.18289 2.86328,8.88791 -0.71573,4.41057 -5.3695,10.88257 -7.82524,10.88257 -0.6464,0 0.49456,-1.43632 2.53546,-3.19183 z M 430.77195,667.22225 c 0.064,-1.55327 0.37992,-1.8692 0.80554,-0.80556 0.38516,0.96249 0.3378,2.1125 -0.1052,2.55556 -0.44305,0.44305 -0.75818,-0.34446 -0.70029,-1.75 z m 209.30967,-5.93422 c -3.98847,-2.19836 -8.42127,-5.03749 -9.85069,-6.30918 -4.08202,-3.63158 -6.44128,-10.50155 -5.43976,-15.84011 0.9368,-4.99355 9.41097,-15.13872 12.64525,-15.13872 1.01711,0 -0.24885,1.42572 -2.81324,3.16828 -5.81491,3.95132 -8.56256,8.95288 -8.56256,15.58643 0,7.07864 3.76488,11.55922 14.72337,17.52233 5.06882,2.75821 8.61603,5.01337 7.8827,5.01147 -0.73334,-0.001 -4.59662,-1.80214 -8.58507,-4.0005 z m -113.41494,-1.90957 c 0,-3.26491 -0.1016,-3.29127 -14.33333,-3.71683 l -14.33333,-0.4286 15,-0.28317 15,-0.28317 v 4 c 0,2.2 -0.3,4 -0.66667,4 -0.36667,0 -0.66667,-1.47971 -0.66667,-3.28823 z m 198.66668,0 c 0,-3.26491 -0.1016,-3.29127 -14.33334,-3.71683 l -14.33333,-0.4286 15,-0.28317 15,-0.28317 v 4 c 0,2.2 -0.3,4 -0.66667,4 -0.36666,0 -0.66666,-1.47971 -0.66666,-3.28823 z m -294.56141,-5.48955 c 0.064,-1.55326 0.37992,-1.8692 0.80554,-0.80556 0.38516,0.9625 0.3378,2.11251 -0.1052,2.55556 -0.44305,0.44306 -0.75818,-0.34445 -0.70029,-1.75 z m 212.57084,-1.87362 c -0.46712,-0.75582 0.0681,-0.97934 1.25464,-0.52402 2.3099,0.88639 2.73252,1.84208 0.81462,1.84208 -0.69006,0 -1.62123,-0.59313 -2.06926,-1.31806 z m -4.84618,-3.68194 c -1.6585,-2.11474 -1.61134,-2.1619 0.50341,-0.50341 2.221,1.74183 2.92731,2.83675 1.82992,2.83675 -0.27687,0 -1.32687,-1.05 -2.33333,-2.33334 z m -0.49659,-13.66666 c 1.32732,-1.46667 2.71331,-2.66667 3.07997,-2.66667 0.36667,0 -0.41932,1.2 -1.74664,2.66667 -1.32732,1.46666 -2.7133,2.66666 -3.07997,2.66666 -0.36667,0 0.41932,-1.2 1.74664,-2.66666 z m -172.66667,-1.4411 c -1.55195,-1.08656 -1.30652,-1.20441 1.09554,-0.52606 2.06946,0.58441 4.05831,0.0609 6,-1.57934 l 2.90446,-2.4535 -2.53999,3 c -2.80369,3.31146 -4.46189,3.65798 -7.46001,1.5589 z m 32.02041,-0.22557 c -0.0185,-2.11613 1.56207,-2.30664 16.97959,-2.04663 l 17,0.28672 -15.94897,0.42471 c -10.6585,0.28383 -16.29084,0.96272 -16.97959,2.04663 -0.71185,1.12028 -1.03692,0.90024 -1.05103,-0.71143 z m 163.97959,0.33333 c -1.1,-0.71088 -1.4,-1.29249 -0.66666,-1.29249 0.73333,0 2.23333,0.58161 3.33333,1.29249 1.1,0.71088 1.4,1.2925 0.66667,1.2925 -0.73334,0 -2.23334,-0.58162 -3.33334,-1.2925 z m 34.68709,-0.33333 c -0.0185,-2.11613 1.56206,-2.30664 16.97958,-2.04663 l 17,0.28672 -15.94897,0.42471 c -10.65849,0.28383 -16.29084,0.96272 -16.97959,2.04663 -0.71185,1.12028 -1.03692,0.90024 -1.05102,-0.71143 z m -248.35376,-1.88304 c 0.91667,-0.36988 2.41667,-0.36988 3.33333,0 0.91667,0.36988 0.16667,0.67252 -1.66666,0.67252 -1.83334,0 -2.58334,-0.30264 -1.66667,-0.67252 z m 10.66667,0 c 0.91666,-0.36988 2.41666,-0.36988 3.33333,0 0.91667,0.36988 0.16667,0.67252 -1.66667,0.67252 -1.83333,0 -2.58333,-0.30264 -1.66666,-0.67252 z m 185.41667,-0.0277 c 0.96249,-0.38516 2.11251,-0.3378 2.55556,0.1052 0.44305,0.44305 -0.34445,0.75818 -1.75,0.70029 -1.55327,-0.064 -1.8692,-0.37992 -0.80556,-0.80555 z m 12,0 c 0.96249,-0.38516 2.11251,-0.3378 2.55556,0.1052 0.44305,0.44305 -0.34445,0.75818 -1.75,0.70029 -1.55327,-0.064 -1.8692,-0.37992 -0.80556,-0.80555 z m 12.07517,-0.87854 c 0.81676,-0.98413 1.04023,-2.28033 0.49659,-2.88042 -0.54363,-0.60011 -0.20929,-0.64148 0.74299,-0.092 1.33396,0.76978 1.37301,1.43098 0.17006,2.88044 -0.85873,1.0347 -1.86133,1.88129 -2.228,1.88129 -0.36666,0 10e-4,-0.8052 0.81836,-1.78935 z m -328.14297,-8.487 c 1.65855,-0.31892 4.05855,-0.30681 5.33334,0.0269 1.27478,0.33372 -0.0823,0.59466 -3.01555,0.57986 -2.93333,-0.0148 -3.97633,-0.28785 -2.31779,-0.60677 z m 57.33334,0 c 1.65855,-0.31892 4.05855,-0.30681 5.33333,0.0269 1.27479,0.33372 -0.0823,0.59466 -3.01554,0.57986 -2.93334,-0.0148 -3.97634,-0.28785 -2.31779,-0.60677 z m 53.31779,0.003 c 1.65,-0.31781 4.35,-0.31781 6,0 1.65,0.3178 0.3,0.57783 -3,0.57783 -3.3,0 -4.65,-0.26003 -3,-0.57783 z m 104,0 c 1.65,-0.31781 4.35,-0.31781 6,0 1.65,0.3178 0.3,0.57783 -3,0.57783 -3.3,0 -4.65,-0.26003 -3,-0.57783 z m 92,0 c 1.65,-0.31781 4.35,-0.31781 6,0 1.65,0.3178 0.3,0.57783 -3,0.57783 -3.3,0 -4.65,-0.26003 -3,-0.57783 z M 388.3094,539.18678 c -0.17016,-18.41431 -0.59293,-36.41431 -0.93951,-40 l -0.6301,-6.51943 1.31977,6.2862 c 0.73533,3.50245 1.15137,21.21581 0.93951,40 l -0.38028,33.71313 -0.30939,-33.48057 z m 20.04932,31.88992 c 1.29729,-0.33806 3.09729,-0.31583 4,0.0495 0.90271,0.36524 -0.15871,0.64183 -2.35871,0.61466 -2.2,-0.0272 -2.93858,-0.326 -1.64129,-0.66406 z m 46.28976,-35.41002 c -0.0107,-19.98333 -0.38,-37.68333 -0.82219,-39.33333 -0.7035,-2.62512 -0.32634,-2.97731 3.01822,-2.81843 3.2993,0.15674 3.39784,0.26246 0.72024,0.77276 -2.34475,0.44688 -2.84934,1.13487 -2.06708,2.81843 1.71318,3.68711 2.29668,74.89391 0.6137,74.89391 -1.00157,0 -1.45028,-11.14412 -1.46289,-36.33334 z m 35.35154,25.38744 c -4.4,-5.97189 -9.70191,-13.15212 -11.78202,-15.95605 -2.08011,-2.80393 -3.44859,-5.09805 -3.04107,-5.09805 0.40752,0 6.17791,7.2 12.82309,16 6.64517,8.8 11.61365,15.98022 11.04106,15.95605 -0.57258,-0.0241 -4.64106,-4.93005 -9.04106,-10.90195 z m 32.66666,-26.27838 c 0,-20.47336 -0.3883,-38.32336 -0.8629,-39.66667 -0.72118,-2.04124 -0.55694,-2.15789 1,-0.71028 2.4164,2.24676 3.69749,77.60123 1.31929,77.60123 -1.01819,0 -1.45639,-11.2003 -1.45639,-37.22428 z m 33.64355,4.41037 c -0.17061,-18.41431 -0.60103,-36.41431 -0.95648,-40 -0.64611,-6.51796 -0.64596,-6.51825 0.68841,-1.31452 0.7758,3.02549 1.17631,19.77445 0.95648,40 l -0.37818,34.79509 z m 31.15146,6.83037 c -8.57979,-14.31834 -16.71453,-28.5236 -18.07719,-31.56721 -2.23023,-4.98137 -2.53219,-5.21348 -3.02456,-2.32488 -0.30084,1.76493 -0.55932,0.32297 -0.5744,-3.20435 l -0.0275,-6.41329 3.61057,8.41329 c 1.98582,4.62732 10.61427,20.03928 19.17434,34.24882 8.56007,14.20952 15.32852,26.07073 15.04101,26.35825 -0.28752,0.28751 -7.54257,-11.19227 -16.12236,-25.51063 z m 25.87166,-13.26532 v -39.24885 l -4.33333,-0.53776 c -4.26643,-0.52947 -4.25613,-0.54107 0.66667,-0.75115 l 5,-0.21338 v 40 c 0,22 -0.3,40 -0.66667,40 -0.36667,0 -0.66667,-17.66199 -0.66667,-39.24886 z m 20,2.02458 c 0,-20.47336 -0.3883,-38.32336 -0.8629,-39.66667 -0.72118,-2.04124 -0.55694,-2.15789 1,-0.71028 2.4164,2.24676 3.69749,77.60123 1.31929,77.60123 -1.01819,0 -1.45639,-11.2003 -1.45639,-37.22428 z m 26.30846,17.84728 c -7.82283,-10.60932 -13.95846,-19.28967 -13.63472,-19.28967 0.97414,0 28.93268,37.50469 28.37458,38.0628 -0.28409,0.28408 -6.91702,-8.16383 -14.73986,-18.77313 z m 24.18813,15.71033 c -1.65849,-2.11475 -1.61133,-2.16191 0.50341,-0.50341 2.221,1.74182 2.92731,2.83674 1.82992,2.83674 -0.27686,0 -1.32686,-1.05 -2.33333,-2.33333 z m -263.71882,0.51393 c 0.30556,-0.26733 2.05556,-1.20042 3.88889,-2.07354 3.14303,-1.49687 3.18558,-1.46911 0.74516,0.48605 -2.124,1.70168 -6.46381,3.18837 -4.63405,1.58749 z m 7.88889,-3.93114 c 0,-0.22947 1.95,-2.17947 4.33334,-4.33334 l 4.33333,-3.91612 -3.91612,4.33334 c -3.65037,4.03928 -4.75055,4.9462 -4.75055,3.91612 z m 251.82993,-1.91612 c -1.65849,-2.11475 -1.61133,-2.16191 0.50341,-0.50342 2.221,1.74183 2.92731,2.83675 1.82992,2.83675 -0.27686,0 -1.32686,-1.05 -2.33333,-2.33333 z m -280.85913,-26.66667 0.30414,-27.66667 0.3899,26.92468 0.3899,26.92467 5.6393,0.50905 5.6393,0.50906 -6.33334,0.23293 -6.33333,0.23295 z m 17.69587,23.81328 c 12.32068,-5.68636 17.1646,-18.47041 14.13245,-37.29831 -1.76618,-10.96702 -6.07461,-16.75956 -14.51348,-19.5129 -5.15341,-1.6814 -5.44504,-1.92356 -1.61897,-1.34438 9.29575,1.40718 15.30364,8.29022 17.46496,20.00898 3.05569,16.56816 -1.51433,31.57236 -11.37684,37.35217 -3.11065,1.82297 -6.50303,3.30132 -7.5386,3.28521 -1.03557,-0.0161 0.51715,-1.13696 3.45048,-2.49077 z m 188.5087,0.85339 c -0.0869,-0.91667 -0.0468,-2.47688 0.0892,-3.46714 0.13593,-0.99026 -0.26747,-1.48241 -0.89645,-1.09369 -0.62898,0.38873 -1.1847,-13.80105 -1.23494,-31.53285 l -0.0913,-32.23966 1.00728,29.33334 c 0.55401,16.13333 1.4486,31.88333 1.98799,35 0.53938,3.11666 0.6017,5.66666 0.13848,5.66666 -0.46323,0 -0.91332,-0.75 -1.0002,-1.66666 z M 481.33335,538.66668 c 1.1,-0.71088 2.6,-1.29249 3.33333,-1.29249 0.73334,0 0.43334,0.58161 -0.66666,1.29249 -1.1,0.71088 -2.6,1.2925 -3.33334,1.2925 -0.73333,0 -0.43333,-0.58162 0.66667,-1.2925 z m -38.40674,-8.66666 c 0.0272,-2.2 0.326,-2.93859 0.66406,-1.6413 0.33805,1.2973 0.31582,3.0973 -0.0495,4 -0.36524,0.90271 -0.64183,-0.1587 -0.61465,-2.3587 z m 53.74007,0.66666 c 1.32732,-1.46666 2.71331,-2.66666 3.07998,-2.66666 0.36666,0 -0.41932,1.2 -1.74664,2.66666 -1.32732,1.46667 -2.71331,2.66667 -3.07998,2.66667 -0.36666,0 0.41932,-1.2 1.74664,-2.66667 z m -16.91667,0.42252 c 0.9625,-0.38516 2.11251,-0.3378 2.55557,0.1052 0.44305,0.44306 -0.34446,0.75819 -1.75,0.7003 -1.55327,-0.064 -1.86921,-0.37992 -0.80557,-0.80555 z m 170.56112,-1.9213 c 0.90445,-0.91123 1.98032,-1.3209 2.39084,-0.91038 0.41052,0.41052 -0.32948,1.15607 -1.64444,1.65678 -1.90027,0.72357 -2.05342,0.57042 -0.7464,-0.7464 z m -160.87071,-3.61292 c 4.64921,-6.40552 4.46598,-14.92131 -0.42632,-19.81362 -3.12847,-3.12845 -4.97591,-3.72736 -12.87463,-4.17368 -8.11642,-0.45861 -9.29844,-0.22416 -9.85942,1.95563 -0.5032,1.95535 -0.66993,1.81452 -0.79204,-0.66903 -0.15142,-3.07996 0.0531,-3.13524 9.78147,-2.64398 8.77404,0.44308 10.40384,0.94985 13.93522,4.33313 2.19949,2.10725 4.37545,5.54496 4.83546,7.63936 1.06066,4.82913 -1.30128,12.09165 -4.98328,15.32267 -2.50485,2.19805 -2.45925,1.96621 0.38354,-1.95048 z m 165.33737,2.1117 c 0.30556,-0.18333 2.35556,-1.83333 4.55556,-3.66666 l 4,-3.33334 -3.23241,3.66667 c -1.77784,2.01667 -3.82784,3.66667 -4.55556,3.66667 -0.72772,0 -1.07313,-0.15 -0.76759,-0.33334 z m 4.04591,-17.05604 c 7.48677,-8.83082 14.26421,-16.45504 15.06099,-16.94272 0.79676,-0.48766 -1.55134,2.70612 -5.218,7.09731 -3.66667,4.39119 -9.96667,11.97509 -14,16.85311 -4.03334,4.87802 -7.81078,8.90945 -8.39432,8.95873 -0.58355,0.0493 5.06456,-7.1356 12.55133,-15.96643 z m -155.89708,4.72271 c 0.0272,-2.2 0.326,-2.93859 0.66405,-1.64129 0.33805,1.29729 0.31583,3.09729 -0.0495,4 -0.36524,0.9027 -0.64182,-0.15871 -0.61465,-2.35871 z m 163.0734,0.66667 c 1.32732,-1.46667 2.71331,-2.66667 3.07997,-2.66667 0.36667,0 -0.41932,1.2 -1.74664,2.66667 -1.32732,1.46666 -2.7133,2.66666 -3.07997,2.66666 -0.36667,0 0.41932,-1.2 1.74664,-2.66666 z m 6,-7.17008 c 0,-0.27687 1.05,-1.32687 2.33333,-2.33334 2.11475,-1.65849 2.16191,-1.61133 0.50342,0.50342 -1.74183,2.221 -2.83675,2.9273 -2.83675,1.82992 z m 6.66667,-8 c 0,-0.27687 1.05,-1.32687 2.33333,-2.33334 2.11475,-1.65849 2.16191,-1.61133 0.50341,0.50342 -1.74182,2.221 -2.83674,2.9273 -2.83674,1.82992 z M 409.69205,493.7427 c 1.2973,-0.33806 3.0973,-0.31583 4,0.0495 0.90271,0.36524 -0.1587,0.64183 -2.3587,0.61466 -2.2,-0.0272 -2.93859,-0.326 -1.6413,-0.66406 z m 69.33334,0 c 1.29729,-0.33806 3.09729,-0.31583 4,0.0495 0.90271,0.36524 -0.15871,0.64183 -2.35871,0.61466 -2.2,-0.0272 -2.93859,-0.326 -1.64129,-0.66406 z m 48.65684,-1.35236 c 1.65855,-0.31892 4.05855,-0.30682 5.33333,0.0269 1.27479,0.33372 -0.0823,0.59467 -3.01554,0.57987 -2.93334,-0.0148 -3.97634,-0.28786 -2.31779,-0.60678 z m 31.98445,0.003 c 1.65,-0.31781 4.35,-0.31781 6,0 1.65,0.3178 0.3,0.57783 -3,0.57783 -3.3,0 -4.65,-0.26003 -3,-0.57783 z m 78.68222,-0.003 c 1.65855,-0.31892 4.05855,-0.30682 5.33333,0.0269 1.27479,0.33372 -0.0823,0.59467 -3.01554,0.57987 -2.93334,-0.0148 -3.97634,-0.28786 -2.31779,-0.60678 z m 0,-49.33334 c 1.65855,-0.31892 4.05855,-0.30681 5.33333,0.0269 1.27479,0.33372 -0.0823,0.59467 -3.01554,0.57987 -2.93334,-0.0148 -3.97634,-0.28785 -2.31779,-0.60677 z M 340.1626,405.77573 c -0.0895,-20.65669 -0.5509,-38.65669 -1.0255,-40 -0.72132,-2.04164 -0.55722,-2.158 1,-0.7092 1.46514,1.36312 1.9482,8.19587 2.26238,32 0.2197,16.64675 -0.15712,33.86682 -0.83742,38.26682 -0.93645,6.0569 -1.27636,-1.12228 -1.39946,-29.55762 z m 64.14763,4.07704 c -0.17062,-18.4143 -0.60103,-36.4143 -0.95648,-40 -0.64611,-6.51796 -0.64596,-6.51825 0.68841,-1.31452 0.7758,3.02549 1.17631,19.77446 0.95648,40 l -0.37819,34.7951 z m 31.15145,6.83038 c -8.57979,-14.31835 -16.71452,-28.5236 -18.07719,-31.56722 -2.23022,-4.98137 -2.53218,-5.21348 -3.02456,-2.32488 -0.30084,1.76494 -0.55932,0.32298 -0.5744,-3.20434 l -0.0275,-6.4133 3.61057,8.4133 c 1.98581,4.62732 10.61427,20.03928 19.17433,34.24881 8.56007,14.20952 15.32852,26.07073 15.04102,26.35825 -0.28752,0.28751 -7.54258,-11.19226 -16.12236,-25.51062 z m 25.87167,-13.26532 v -39.24886 l -4.33334,-0.53776 c -4.26642,-0.52947 -4.25613,-0.54107 0.66667,-0.75115 l 5,-0.21338 v 40 c 0,22 -0.3,40 -0.66667,40 -0.36666,0 -0.66666,-17.66199 -0.66666,-39.24885 z m 20.16259,2.3579 c -0.0895,-20.65669 -0.5509,-38.65669 -1.0255,-40 -0.72132,-2.04164 -0.55723,-2.158 1,-0.7092 1.46514,1.36312 1.9482,8.19587 2.26238,32 0.2197,16.64675 -0.15712,33.86682 -0.83742,38.26682 -0.93645,6.0569 -1.27636,-1.12228 -1.39946,-29.55762 z m 62.48588,0.55762 c -0.0107,-19.98334 -0.38,-37.68334 -0.82219,-39.33334 -0.70351,-2.62512 -0.32635,-2.97731 3.01821,-2.81843 3.29931,0.15674 3.39784,0.26246 0.72024,0.77276 -2.34474,0.44688 -2.84933,1.13487 -2.06708,2.81843 1.71319,3.68711 2.29668,74.89391 0.61371,74.89391 -1.00157,0 -1.45028,-11.14412 -1.46289,-36.33333 z m 35.35153,25.38744 c -4.4,-5.9719 -9.70191,-13.15212 -11.78201,-15.95606 -2.08011,-2.80393 -3.44859,-5.09805 -3.04107,-5.09805 0.40752,0 6.17791,7.2 12.82308,16 6.64517,8.8 11.61366,15.98023 11.04107,15.95605 -0.57259,-0.0241 -4.64107,-4.93005 -9.04107,-10.90194 z m 69.75,10.03508 c 0.9625,-0.38516 2.11251,-0.3378 2.55556,0.1052 0.44306,0.44305 -0.34445,0.75818 -1.75,0.70029 -1.55326,-0.064 -1.8692,-0.37992 -0.80556,-0.80555 z m 46.91667,-16.4382 v -17.34902 l -10.66667,-21.30197 c -5.86666,-11.71608 -10.63486,-21.75903 -10.596,-22.31766 0.0388,-0.55862 5.40707,9.48433 11.92934,22.31766 l 11.85868,23.33333 0.0707,16.33334 c 0.0435,10.0471 -0.4425,16.33333 -1.26267,16.33333 -0.82057,0 -1.33333,-6.67189 -1.33333,-17.34901 z m -76.48079,9.01568 c -8.6546,-8.68743 -12.04712,-18.11346 -11.87704,-33 0.12134,-10.61598 2.45923,-18.92202 7.20011,-25.57996 3.13747,-4.40617 13.77311,-11.75338 17.01389,-11.75338 1.10042,0 -1.11297,1.55163 -4.91861,3.44807 -9.95123,4.9589 -15.7306,13.96329 -17.64215,27.48687 -2.34582,16.59594 3.55623,33.72834 14.47491,42.01765 3.17368,2.40941 5.08455,4.38075 4.24637,4.38075 -0.83816,0 -4.66204,-3.15 -8.49748,-7 z m -234.18588,2.59538 c 0,-1.88505 -2.31608,-2.23916 -17.00001,-2.5991 l -17,-0.41674 17.04184,-0.28977 c 14.3101,-0.24332 17.16842,0.04 17.83139,1.76773 0.43426,1.13163 0.41542,2.43163 -0.0419,2.88888 -0.45724,0.45727 -0.83136,-0.15068 -0.83136,-1.351 z m 141.33333,0 c 0,-1.88505 -2.31608,-2.23916 -17,-2.5991 l -17,-0.41674 17.04184,-0.28977 c 14.3101,-0.24332 17.16842,0.04 17.83139,1.76773 0.43425,1.13163 0.41541,2.43163 -0.0419,2.88888 -0.45724,0.45727 -0.83136,-0.15068 -0.83136,-1.351 z m 136.00001,-1.43213 c 0,-0.27687 1.05,-1.32687 2.33333,-2.33333 2.11475,-1.6585 2.16191,-1.61134 0.50341,0.50341 -1.74182,2.221 -2.83674,2.92731 -2.83674,1.82992 z m -25.66667,-1.71296 c 0.91667,-0.36988 2.41667,-0.36988 3.33333,0 0.91667,0.36988 0.16667,0.67252 -1.66666,0.67252 -1.83334,0 -2.58334,-0.30264 -1.66667,-0.67252 z m 6.66667,0 c 0.91666,-0.36988 2.41666,-0.36988 3.33333,0 0.91667,0.36988 0.16667,0.67252 -1.66667,0.67252 -1.83333,0 -2.58333,-0.30264 -1.66666,-0.67252 z m -190.49132,-2.11696 c -0.0869,-0.91667 -0.0468,-2.47688 0.0892,-3.46713 0.13594,-0.99027 -0.26746,-1.48242 -0.89645,-1.0937 -0.62897,0.38874 -1.18469,-13.80105 -1.23493,-31.53285 l -0.0913,-32.23966 1.00728,29.33334 c 0.55402,16.13333 1.4486,31.88333 1.98799,35 0.53939,3.11667 0.60171,5.66667 0.13848,5.66667 -0.46323,0 -0.91332,-0.75 -1.0002,-1.66667 z m 198.82465,-0.266 c 3.02908,-1.6704 3.40193,-2.85269 4.08493,-12.95276 l 0.75159,-11.11457 0.24841,10.9244 c 0.2257,9.92588 -0.0224,11.1141 -2.71494,13 -1.62983,1.14157 -3.57983,2.05433 -4.33334,2.02834 -0.75349,-0.026 0.13,-0.87442 1.96335,-1.88541 z m -81.33334,-22.06733 c 1.1,-0.71088 2.6,-1.2925 3.33334,-1.2925 0.73333,0 0.43333,0.58162 -0.66667,1.2925 -1.1,0.71088 -2.6,1.29249 -3.33333,1.29249 -0.73334,0 -0.43334,-0.58161 0.66666,-1.29249 z m 48.10527,-0.77778 c 0.064,-1.55326 0.37992,-1.8692 0.80555,-0.80556 0.38516,0.9625 0.3378,2.11251 -0.1052,2.55556 -0.44305,0.44306 -0.75819,-0.34445 -0.70029,-1.75 z m 21.5374,-4.55556 c 0,-2.56666 0.2744,-3.61666 0.60978,-2.33333 0.33536,1.28333 0.33536,3.38333 0,4.66667 -0.33538,1.28333 -0.60978,0.23333 -0.60978,-2.33334 z m 63.53175,0.0273 c -0.39146,-1.08499 -0.15478,-3.78499 0.52596,-6 1.52927,-4.97596 16.11279,-33.99194 16.75944,-33.34529 0.25811,0.25811 -2.83169,6.96024 -6.86624,14.89363 -4.03453,7.93339 -7.8692,17.12434 -8.52146,20.42434 -0.65227,3.3 -1.50623,5.11229 -1.8977,4.02732 z m -323.84109,-3.31556 c 0,-3.26491 -0.1016,-3.29127 -14.33333,-3.71683 l -14.33334,-0.4286 15,-0.28317 15.00001,-0.28318 v 4 c 0,2.2 -0.3,4 -0.66667,4 -0.36667,0 -0.66667,-1.4797 -0.66667,-3.28822 z m 141.33334,0 c 0,-3.26491 -0.1016,-3.29127 -14.33333,-3.71683 l -14.33334,-0.4286 15,-0.28317 15,-0.28318 v 4 c 0,2.2 -0.3,4 -0.66666,4 -0.36667,0 -0.66667,-1.4797 -0.66667,-3.28822 z m 64.66667,0.62156 c 1.32732,-1.46667 2.71331,-2.66667 3.07997,-2.66667 0.36667,0 -0.41932,1.2 -1.74664,2.66667 -1.32732,1.46666 -2.71331,2.66666 -3.07997,2.66666 -0.36667,0 0.41932,-1.2 1.74664,-2.66666 z m -16.91667,0.42252 c 0.96249,-0.38516 2.11251,-0.3378 2.55556,0.1052 0.44305,0.44305 -0.34445,0.75818 -1.75,0.70029 -1.55327,-0.064 -1.8692,-0.37992 -0.80556,-0.80555 z m 9.6904,-5.53423 c 4.64921,-6.40552 4.46599,-14.92131 -0.42632,-19.81361 -3.12847,-3.12846 -4.97591,-3.72737 -12.87463,-4.17369 -8.11641,-0.45861 -9.29844,-0.22416 -9.85941,1.95563 -0.5032,1.95535 -0.66993,1.81452 -0.79204,-0.66902 -0.15143,-3.07997 0.0531,-3.13525 9.78147,-2.64399 8.77404,0.44308 10.40384,0.94985 13.93521,4.33313 2.19949,2.10726 4.37545,5.54496 4.83547,7.63936 1.06065,4.82914 -1.30128,12.09166 -4.98328,15.32267 -2.50486,2.19805 -2.45926,1.96621 0.38353,-1.95048 z m 39.9982,-0.9994 c 0.064,-1.55327 0.37992,-1.8692 0.80555,-0.80556 0.38516,0.96249 0.3378,2.11251 -0.1052,2.55556 -0.44305,0.44305 -0.75819,-0.34445 -0.70029,-1.75 z m -26.512,-9.22223 c 0.0272,-2.2 0.326,-2.93858 0.66406,-1.64129 0.33805,1.29729 0.31582,3.09729 -0.0495,4 -0.36524,0.90271 -0.64183,-0.15871 -0.61465,-2.35871 z M 350.68709,374.33335 c -0.0185,-2.11614 1.56207,-2.30665 16.97959,-2.04663 l 17,0.28672 -15.94898,0.4247 c -10.65849,0.28383 -16.29084,0.96273 -16.97958,2.04663 -0.71186,1.12028 -1.03692,0.90024 -1.05103,-0.71142 z m 141.33334,0 c -0.0185,-2.11614 1.56207,-2.30665 16.97959,-2.04663 l 17,0.28672 -15.94898,0.4247 c -10.65849,0.28383 -16.29084,0.96273 -16.97958,2.04663 -0.71186,1.12028 -1.03692,0.90024 -1.05103,-0.71142 z m 161.31292,0.22557 c -1.55194,-1.08656 -1.30652,-1.20441 1.09555,-0.52607 2.06945,0.58442 4.05831,0.0609 6,-1.57933 l 2.90445,-2.45351 -2.53998,3 c -2.8037,3.31147 -4.4619,3.65799 -7.46002,1.55891 z m -17.66666,-2.10862 c 0.91666,-0.36988 2.41666,-0.36988 3.33333,0 0.91667,0.36988 0.16667,0.67252 -1.66667,0.67252 -1.83333,0 -2.58333,-0.30264 -1.66666,-0.67252 z m 10.66666,0 c 0.91667,-0.36988 2.41667,-0.36988 3.33334,0 0.91666,0.36988 0.16666,0.67252 -1.66667,0.67252 -1.83333,0 -2.58333,-0.30264 -1.66667,-0.67252 z m -77.97463,-8.04094 c 1.2973,-0.33806 3.0973,-0.31583 4,0.0495 0.90271,0.36524 -0.1587,0.64183 -2.3587,0.61466 -2.2,-0.0272 -2.93859,-0.326 -1.6413,-0.66406 z m 112.97463,-0.40935 -4.66666,-0.98229 4.25464,-0.17552 c 2.34005,-0.0965 4.62546,0.42448 5.07869,1.15781 0.45323,0.73333 0.63864,1.25435 0.41203,1.15781 -0.22662,-0.0965 -2.51203,-0.61756 -5.0787,-1.15781 z m -273.66667,-0.94097 c 1.65,-0.31782 4.35,-0.31782 6,0 1.65,0.3178 0.3,0.57782 -3,0.57782 -3.3,0 -4.65,-0.26002 -3,-0.57782 z m 230.66667,0 c 1.65,-0.31782 4.35,-0.31782 6,0 1.65,0.3178 0.3,0.57782 -3,0.57782 -3.3,0 -4.65,-0.26002 -3,-0.57782 z"
         id="path841" />
      <path
         style="fill:#000100;stroke-width:1.33333"
         d="m 502.66668,1058.586 c -27.41249,-1.2515 -50.04271,-3.4491 -61.33333,-5.9558 -4.76667,-1.0583 -15.86667,-3.3707 -24.66667,-5.1386 -8.8,-1.7679 -19.38123,-4.1993 -23.51384,-5.4032 -12.62556,-3.6778 -24.84988,-13.2353 -27.39902,-21.4217 -0.95069,-3.0531 -3.27836,-5.0786 -9.83301,-8.5564 -10.87405,-5.7695 -26.94205,-21.49706 -29.43961,-28.81574 -1.50222,-4.40196 -1.86506,-75.97341 -2.15232,-424.5453 l -0.34552,-419.25079 3.99418,-8.53537 c 2.1968,-4.69446 9.06974,-17.04841 15.27319,-27.45323 14.47997,-24.286698 19.41189,-34.937052 20.33923,-43.922079 0.63464,-6.149028 0.29006,-7.858069 -2.28715,-11.343925 -2.88864,-3.907101 -2.92795,-4.266585 -0.81837,-7.486187 2.70224,-4.124133 3.52216,-4.309301 26.84891,-6.063378 82.75848,-6.223101 209.24152,-6.223101 292,0 23.32675,1.754077 24.14667,1.939245 26.84891,6.063378 2.10958,3.219602 2.07027,3.579086 -0.81837,7.486187 -6.33505,8.568609 -2.14941,21.382815 18.05208,55.266004 6.20345,10.40482 13.07639,22.75877 15.27319,27.45323 l 3.99418,8.53537 -0.34552,419.25079 c -0.28726,348.57189 -0.6501,420.14334 -2.15232,424.5453 -2.49756,7.31868 -18.56556,23.04624 -29.43961,28.81574 -6.55465,3.4778 -8.88232,5.5033 -9.83301,8.5564 -2.54914,8.1864 -14.77346,17.7439 -27.39902,21.4217 -4.13261,1.2039 -14.71384,3.6353 -23.51384,5.4032 -8.8,1.7679 -19.87576,4.075 -24.6128,5.1269 -4.73704,1.0519 -14.93704,2.5428 -22.66667,3.3132 -14.38046,1.4333 -66.85251,4.1501 -74.05387,3.8342 -2.2,-0.097 -13.9,-0.6274 -26,-1.1799 z M 467.63004,699.09265 c 5.65825,-2.80628 6.32509,-4.15136 3.74737,-7.5588 -1.6393,-2.16698 -2.44549,-2.27482 -6.64488,-0.8889 -13.25142,4.37337 -23.79056,0.39127 -29.23806,-11.04726 -8.09044,-16.98811 -4.49483,-38.49368 7.63378,-45.65823 4.77698,-2.82183 15.97332,-3.18739 21.93902,-0.71632 3.84809,1.59393 4.63057,1.52699 6.97757,-0.59701 2.48637,-2.25015 2.51003,-2.5397 0.39795,-4.87351 -3.50742,-3.87565 -15.64946,-6.86648 -23.62504,-5.81932 -20.6395,2.70989 -32.20354,21.72388 -28.65368,47.11339 2.15238,15.3945 12.05317,28.85852 23.62041,32.12125 6.60428,1.86286 17.88461,0.88111 23.84556,-2.07529 z m 192.82942,-0.75743 c 8.07952,-4.46056 11.54056,-10.40443 11.54056,-19.81932 0,-6.80833 -0.51629,-8.34445 -4.22389,-12.56717 -2.38506,-2.71643 -8.91523,-7.15182 -15,-10.18823 -12.98291,-6.47869 -16.77611,-9.74077 -16.77611,-14.42715 0,-8.08568 11.66451,-12.62289 22.66667,-8.81678 5.88272,2.03508 6.06376,2.01202 9.26208,-1.1795 l 3.26206,-3.25514 -6.14125,-2.71656 c -9.23744,-4.08618 -16.92279,-4.7313 -24.87964,-2.08846 -11.92853,3.96203 -18.44272,15.36919 -14.35864,25.14378 2.30516,5.51701 7.92555,9.95385 19.7208,15.56798 11.59687,5.51971 15.07399,9.26302 15.07399,16.22802 0,4.21705 -0.79098,6.08005 -3.61139,8.50606 -4.97048,4.27543 -13.49691,5.36265 -21.00859,2.67883 -3.29234,-1.17631 -6.53089,-2.27288 -7.19676,-2.43681 -0.66586,-0.16395 -2.15708,1.3307 -3.3138,3.32145 -2.64773,4.55682 -1.31053,6.09375 7.44331,8.55504 8.53928,2.40096 20.64824,1.29911 27.5406,-2.50604 z m -280.17393,-1.00945 c 0.32351,-2.20417 0.29162,-4.30418 -0.0709,-4.66667 -0.36244,-0.36249 -8.05903,-0.65908 -17.10348,-0.65908 h -16.44444 v -35.50673 -35.50674 l -6.06587,0.68371 c -3.33623,0.37604 -6.18623,0.90407 -6.33333,1.1734 -0.14711,0.26933 -0.0997,18.03969 0.1052,39.48969 l 0.3727,39.00001 h 22.47596 22.47595 l 0.58819,-4.00759 z m 23.71448,-36.16582 v -40.1734 l -6.06586,0.68371 c -3.33623,0.37604 -6.18623,0.90407 -6.33334,1.1734 -0.1471,0.26933 -0.0997,18.03969 0.1052,39.48969 l 0.37271,39.00001 h 5.96063 5.96061 v -40.17341 z m 128.56293,36.77875 c 0.4686,-1.86705 0.49822,-3.96705 0.0659,-4.66667 -0.4324,-0.6996 -8.25076,-1.27201 -17.37414,-1.27201 h -16.58798 v -14.66667 -14.66666 h 14.66667 14.66667 v -4 -4 h -14.66667 -14.66667 v -11.33334 -11.33333 h 16 16 v -4.66667 -4.66666 H 507.8574 c -20.25132,0 -22.71856,0.23652 -22,2.10905 0.44514,1.15997 0.80932,18.85997 0.80932,39.33333 v 37.22429 h 22.52212 22.52212 z m 28.50333,-29.23952 -0.39959,-32.63416 2.89224,6.56099 c 1.59074,3.60854 9.9228,18.29392 18.51571,32.63417 l 15.62346,26.07318 h 5.81764 5.81762 v -40.00001 -40 l -4.33333,0.0204 c -8.15247,0.0384 -8.00785,-0.59056 -7.4776,32.52048 0.30047,18.76244 0.0288,29.05084 -0.71736,27.16362 -0.66056,-1.67082 -8.75392,-15.78784 -17.98524,-31.37118 l -16.78422,-28.33332 -4.68446,0.0204 c -2.57646,0.0107 -5.28446,0.46123 -6.01779,1 -0.85388,0.62734 -1.17499,15.00379 -0.89299,39.97959 l 0.44035,39 h 5.29257 5.29256 l -0.39957,-32.63417 z m 170.16334,29.23952 c 0.4686,-1.86705 0.49823,-3.96705 0.0659,-4.66667 -0.4324,-0.6996 -8.25076,-1.27201 -17.37415,-1.27201 h -16.58797 v -14.66667 -14.66666 h 14.66666 14.66667 v -4 -4 h -14.66667 -14.66666 v -11.33334 -11.33333 h 16 16 v -4.66667 -4.66666 h -22.80932 c -20.25133,0 -22.71857,0.23652 -22.00001,2.10905 0.44514,1.15997 0.80932,18.85997 0.80932,39.33333 v 37.22429 h 22.52213 22.52212 z M 418.09135,570.03831 c 13.22881,-3.94672 21.86741,-15.08736 24.5059,-31.60373 2.31162,-14.47006 -0.8195,-26.91072 -8.80677,-34.9915 -6.98147,-7.06321 -14.11149,-9.28669 -31.65843,-9.87262 l -15.86796,-0.52987 0.86796,6.33248 c 0.47738,3.48285 0.86796,21.24873 0.86796,39.47971 v 33.14724 h 11.758 c 6.48122,0 14.7089,-0.88038 18.33334,-1.96171 z m -18.09134,-31.8522 c 0,-13.46431 -0.38156,-27.26431 -0.84789,-30.66667 l -0.84791,-6.18609 h 5.27256 c 9.21622,0 18.651,3.60249 22.43802,8.56752 5.78884,7.58957 7.33194,26.77679 3.06406,38.09915 -3.0487,8.08798 -13.44192,14.58586 -23.41217,14.63738 l -5.66667,0.0293 z m 66.66667,17.81391 v -16 h 3.86064 c 3.38557,0 5.31337,1.96277 15.66667,15.95102 l 11.80603,15.95104 6.49658,0.0489 c 4.99908,0.0377 6.20016,-0.33522 5.2106,-1.6177 -0.7073,-0.91666 -5.93157,-7.85478 -11.60948,-15.41805 -5.6779,-7.56327 -11.60157,-14.2242 -13.1637,-14.80207 -2.55468,-0.94504 -2.33998,-1.21577 2.1355,-2.69281 16.16606,-5.33528 21.74262,-24.84585 10.36794,-36.27399 -6.22492,-6.25416 -12.13818,-7.79652 -29.92629,-7.80564 -14.37632,-0.008 -14.4826,0.0159 -13.68488,2.99256 0.44219,1.65 0.81218,19.35 0.82219,39.33334 l 0.0182,36.33336 h 6 6 z m 0,-39.29862 v -15.66897 l 9.2684,0.52371 c 7.48694,0.42305 9.91766,1.13365 12.64626,3.69704 4.38957,4.12378 5.51421,10.34161 2.97133,16.42758 -2.67979,6.41363 -7.19715,9.08566 -16.83832,9.95988 l -8.04767,0.72975 z m 68,15.12522 v -40.1734 l -6.06586,0.6837 c -3.33623,0.37604 -6.18623,0.90407 -6.33334,1.1734 -0.1471,0.26934 -0.0997,18.0397 0.1052,39.4897 l 0.37271,39 h 5.96063 5.96061 v -40.1734 z m 31.73292,7.53922 -0.39958,-32.63416 2.89224,6.56099 c 1.59073,3.60855 9.9228,18.29392 18.51571,32.63417 l 15.62345,26.07318 h 5.81764 5.81763 v -40 -40 l -4.33334,0.0204 c -8.15246,0.0384 -8.00785,-0.59056 -7.4776,32.52048 0.30047,18.76244 0.0288,29.05084 -0.71736,27.16361 -0.66056,-1.67081 -8.75392,-15.78784 -17.98524,-31.37117 l -16.78421,-28.33332 -4.68447,0.0204 c -2.57645,0.0107 -5.28445,0.46122 -6.01779,1 C 555.8128,493.64775 555.4917,508.0242 555.7737,533 l 0.44034,39 h 5.29258 5.29256 l -0.39958,-32.63417 z m 79.23047,13.63418 0.36995,-19 13.94065,19 13.94067,19 h 6.39267 c 3.51597,0 6.39268,-0.32119 6.39268,-0.71376 0,-0.39258 -6.35535,-9.1448 -14.123,-19.44942 -9.77528,-12.96794 -15.41915,-19.28138 -18.33334,-20.50836 l -4.21033,-1.77269 3.64913,-0.91803 c 3.11584,-0.78386 15.75451,-14.59173 30.18079,-32.97282 1.68469,-2.14654 1.34749,-2.33159 -4.24856,-2.33159 h -6.07848 l -13.75144,16.23316 -13.75144,16.23315 -0.37443,-17.06859 -0.37442,-17.0686 -6.02478,0.67908 c -3.31362,0.37349 -6.14513,0.89944 -6.29224,1.16877 -0.1471,0.26934 -0.0997,18.0397 0.1052,39.4897 l 0.37271,39 h 5.92401 5.92402 l 0.36993,-19 z m 9.48479,-112.53766 c 11.8378,-6.04459 11.55183,-5.45327 11.55183,-23.88647 v -16.57588 h -13.33334 -13.33333 v 4 4 h 8 8 v 10.63243 c 0,10.54992 -0.0323,10.64908 -4.14865,12.77777 -2.28176,1.17995 -6.78004,2.14536 -9.99618,2.14536 -8.30532,0 -14.31692,-4.13349 -18.36072,-12.62456 -8.09044,-16.9881 -4.49482,-38.49368 7.63379,-45.65822 4.77697,-2.82183 15.97332,-3.18739 21.93901,-0.71632 3.8481,1.59393 4.63058,1.52698 6.97758,-0.59702 2.48637,-2.25015 2.51002,-2.53969 0.39794,-4.87351 -1.23501,-1.36466 -5.52188,-3.4337 -9.52638,-4.59784 -17.73008,-5.15426 -34.67092,3.49411 -41.01202,20.93681 -3.01684,8.29852 -2.95526,24.06276 0.1324,33.90844 3.1126,9.92508 13.17283,20.79857 21.34251,23.06781 6.61911,1.83855 18.18872,0.89351 23.73555,-1.9388 z m -269.21859,-1.19033 c 0.4686,-1.86706 0.49822,-3.96706 0.0659,-4.66667 -0.4324,-0.6996 -8.25076,-1.27201 -17.37415,-1.27201 h -16.58797 v -14.66667 -14.66667 h 14.66667 14.66667 v -4 -4 h -14.66667 -14.66667 v -11.33333 -11.33334 h 16 16 v -4.66666 -4.66667 h -22.80932 c -20.25132,0 -22.71856,0.23652 -22,2.10905 0.44513,1.15998 0.80932,18.85998 0.80932,39.33334 v 37.22428 h 22.52212 22.52212 z m 28.50333,-29.23952 -0.39959,-32.63416 2.89224,6.56098 c 1.59074,3.60855 9.9228,18.29392 18.51571,32.63418 l 15.62345,26.07317 h 5.81764 5.81763 v -40 -40 l -4.33333,0.0204 c -8.15247,0.0384 -8.00786,-0.59056 -7.4776,32.52048 0.30046,18.76244 0.0288,29.05084 -0.71736,27.16361 C 449.47783,420.70036 441.38447,406.58333 432.15315,391 l -16.78422,-28.33332 -4.68446,0.0204 c -2.57646,0.0107 -5.28446,0.46122 -6.01779,1 -0.85388,0.62733 -1.17499,15.00379 -0.89299,39.97959 l 0.44035,39 h 5.29257 5.29256 l -0.39957,-32.63418 z m 112.83,29.23952 c 0.4686,-1.86706 0.49823,-3.96706 0.0659,-4.66667 -0.4324,-0.6996 -8.25076,-1.27201 -17.37415,-1.27201 h -16.58797 v -14.66667 -14.66667 h 14.66667 14.66666 v -4 -4 h -14.66666 -14.66667 v -11.33333 -11.33334 h 16 16 v -4.66666 -4.66667 h -22.80932 c -20.25132,0 -22.71856,0.23652 -22,2.10905 0.44513,1.15998 0.80932,18.85998 0.80932,39.33334 v 37.22428 h 22.52212 22.52212 z m 28.77042,-12.60535 v -16 h 3.86064 c 3.38557,0 5.31337,1.96277 15.66666,15.95103 l 11.80603,15.95104 6.49659,0.0489 c 4.99908,0.0377 6.20016,-0.33521 5.2106,-1.61769 -0.70731,-0.91667 -5.93157,-7.85479 -11.60948,-15.41806 -5.67791,-7.56326 -11.60158,-14.2242 -13.16371,-14.80206 -2.55468,-0.94504 -2.33997,-1.21578 2.13551,-2.69282 16.16605,-5.33528 21.74261,-24.84585 10.36793,-36.27399 -6.22492,-6.25416 -12.13817,-7.79652 -29.92628,-7.80564 -14.37632,-0.008 -14.4826,0.0159 -13.68488,2.99256 0.44219,1.65 0.81217,19.35001 0.82219,39.33334 l 0.0182,36.33336 h 6 6 z m 0,-39.29861 v -15.66898 l 9.2684,0.52371 c 7.48693,0.42305 9.91765,1.13365 12.64625,3.69704 4.38957,4.12379 5.51421,10.34161 2.97133,16.42759 -2.67978,6.41362 -7.19714,9.08565 -16.83832,9.95988 l -8.04766,0.72974 z m 152,39.2838 v -16.01482 l 11.33334,-22.63704 c 6.23333,-12.45037 11.33333,-22.94371 11.33333,-23.31852 0,-0.37481 -2.25,-0.67367 -5,-0.66412 l -5,0.0173 -7.62389,14.98263 c -4.19314,8.24046 -8.01196,16.78264 -8.48627,18.98264 l -0.86239,4 -1.6651,-4.66666 c -0.91582,-2.56667 -5.05202,-11.41667 -9.19154,-19.66667 -6.85219,-13.65627 -7.85389,-14.99818 -11.18195,-14.97959 -7.96561,0.0445 -7.81897,1.01985 3.57443,23.77315 l 10.77004,21.50845 v 17.34902 17.34901 h 6 6 z"
         id="path839" />
    </g>
  </g>
</svg>
